<svg width="24" height="24" viewBox="0 0 24 24" fill="none" xmlns="http://www.w3.org/2000/svg">
<path d="M21.4417 7.55211C21.2568 6.53163 20.3759 5.78847 19.3536 5.55646C17.8238 5.23201 14.9926 5 11.9293 5C8.86786 5 5.9913 5.23201 4.45967 5.55646C3.43919 5.78847 2.55646 6.4845 2.37158 7.55211C2.18488 8.71216 2 10.3362 2 12.4243C2 14.5124 2.18488 16.1365 2.41689 17.2965C2.60359 18.317 3.4845 19.0602 4.50499 19.2922C6.12906 19.6166 8.91318 19.8486 11.9764 19.8486C15.0397 19.8486 17.8238 19.6166 19.4479 19.2922C20.4684 19.0602 21.3493 18.3641 21.536 17.2965C21.7209 16.1365 21.9529 14.4653 22 12.4243C21.9057 10.3362 21.6737 8.71216 21.4417 7.55211ZM9.42432 15.6725V9.17618L15.085 12.4243L9.42432 15.6725Z" fill="white"/>
</svg>
