<svg width="24" height="24" viewBox="0 0 24 24" fill="none" xmlns="http://www.w3.org/2000/svg">
<mask id="mask0_104_16882" style="mask-type:alpha" maskUnits="userSpaceOnUse" x="1" y="5" width="22" height="14">
<path d="M1 7C1 5.89543 1.89543 5 3 5H21C22.1046 5 23 5.89543 23 7V17C23 18.1046 22.1046 19 21 19H3C1.89543 19 1 18.1046 1 17V7Z" fill="#3F51B5"/>
</mask>
<g mask="url(#mask0_104_16882)">
<path d="M1 5H23V19H1V5Z" fill="#3F51B5"/>
<path d="M1 7.108L11.405 13.4675L12.9695 10.9075L3.304 5H1V7.108Z" fill="white"/>
<path d="M22.9998 5H21.1953L11.5303 10.907L13.0943 13.4675L22.9998 7.413V5Z" fill="white"/>
<path d="M13.0943 10.1355L11.5303 12.6955L21.8453 19H22.9998V16.1895L13.0943 10.1355Z" fill="white"/>
<path d="M1 16.4955V19H2.655L12.9695 12.696L11.4055 10.1355L1 16.4955Z" fill="white"/>
<path d="M1 10H23V14H1V10Z" fill="white"/>
<path d="M10 5H14V19H10V5Z" fill="white"/>
<path d="M8.609 10L1 5.3495V6.5215L6.691 10H8.609ZM22.1545 5L13.9735 10H15.891L23 5.6555V5H22.1545ZM16.541 14L23 17.9475V16.7755L18.4585 14H16.541ZM7.959 14L1 18.253V19H1.696L9.8765 14H7.959ZM1 11H23V13H1V11Z" fill="#E53935"/>
<path d="M11 5H13V19H11V5Z" fill="#E53935"/>
</g>
</svg>
